<svg width="90" height="107" viewBox="0 0 90 107" fill="none" xmlns="http://www.w3.org/2000/svg">
<path d="M63.6249 104.331V49.2774M63.6249 104.331L84.5527 90.8298C85.8849 89.9704 86.6896 88.4936 86.6896 86.9083V86.4754V40.3498M63.6249 104.331H7.33464C4.75731 104.331 2.66797 102.241 2.66797 99.6638V50.9099C2.66797 49.8529 3.02676 48.8273 3.68562 48.0009L32.3227 12.0793M63.6249 49.2774H5.96294M63.6249 49.2774L32.3227 12.0793M63.6249 49.2774L66.0711 48.3305M32.3227 12.0793L34.719 10.9972M86.6896 40.3498L57.6531 4.46397C56.3184 2.81434 54.0387 2.27292 52.1047 3.14625L51.9993 3.19383M86.6896 40.3498L84.0354 41.3772M34.719 10.9972L66.0711 48.3305M34.719 10.9972L37.111 9.91704M66.0711 48.3305L68.753 47.2925M68.753 47.2925L37.111 9.91704M68.753 47.2925L71.6713 46.1629M37.111 9.91704L39.8861 8.66385M39.8861 8.66385L71.6713 46.1629M39.8861 8.66385L42.9164 7.29546M71.6713 46.1629L75.0013 44.874M75.0013 44.874L42.9164 7.29546M75.0013 44.874L78.1277 43.6638M42.9164 7.29546L45.7675 6.00797M45.7675 6.00797L78.1277 43.6638M45.7675 6.00797L48.6112 4.72382M78.1277 43.6638L81.3811 42.4046M81.3811 42.4046L48.6112 4.72382M81.3811 42.4046L84.0354 41.3772M48.6112 4.72382L51.9993 3.19383M51.9993 3.19383L84.0354 41.3772" stroke="#1B0F0F" stroke-width="4.66667" stroke-linecap="round"/>
</svg>
